<svg width="18" height="20" fill="none" xmlns="http://www.w3.org/2000/svg"><path d="M11.406 15.328c.38 0 .688-.308.688-.687V7.766a.688.688 0 00-1.375 0v6.875c0 .38.308.687.687.687zm-4.812 0c.38 0 .687-.308.687-.687V7.766a.688.688 0 00-1.375 0v6.875c0 .38.308.687.688.687zM11.75 1.922a.688.688 0 000-1.375h-5.5a.688.688 0 000 1.375h5.5z" fill="#00A500"/><path d="M1.438 2.61a.688.688 0 000 1.374h.687v12.65a2.823 2.823 0 002.819 2.82h8.112a2.823 2.823 0 002.819-2.82V3.984h.688a.688.688 0 000-1.375H1.438zM14.5 3.983v12.65c0 .798-.646 1.444-1.444 1.444H4.944A1.444 1.444 0 013.5 16.634V3.984h11z" fill="#00A500"/></svg>