<svg width="33" height="33" fill="none" xmlns="http://www.w3.org/2000/svg"><g clip-path="url(#clip0_0_634)" fill="#000"><path d="M13.956 4.76a7.219 7.219 0 00-4.544 6.693c0 1.064.86 1.933 1.934 1.933a1.932 1.932 0 001.933-1.933 3.325 3.325 0 013.327-3.328c1.813 0 3.33 1.53 3.33 3.325a3.309 3.309 0 01-2.135 3.11c-.93.357-1.715.97-2.274 1.777-1.02 1.474-.853 2.718-.853 4.65 0 .153.018.306.054.455a.483.483 0 10.94-.227c-.037-.157-.027-.046-.027-2.135.002-1.611.986-3.03 2.507-3.618 2.872-1.1 3.716-4.81 1.489-7.036-2.714-2.71-7.329-.78-7.324 3.027a.97.97 0 01-.967.966.97.97 0 01-.967-.966c-.002-3.484 2.927-6.451 6.624-6.215 3.208.2 5.834 2.891 5.834 6.216a6.19 6.19 0 01-3.994 5.813 1.983 1.983 0 00-.92.712c-.438.625-.348.987-.348 3.008a.97.97 0 01-.967.966.484.484 0 00-.483.483c0 1.015 2.415.396 2.417-1.45V19.08c.001-.406.25-.755.647-.91a7.172 7.172 0 004.615-6.716c0-5.049-5.13-8.566-9.848-6.693zm4.302 21.051c-.754-1.248-2.492-1.222-3.26-.067a1.932 1.932 0 001.626 3.001c1.459 0 2.431-1.612 1.634-2.934zm-1.88 1.937a.942.942 0 01-.718-.745c-.198-1.07 1.215-1.611 1.77-.692a.96.96 0 01-1.053 1.437z"/><path d="M24.775 2.226C16.188-2.756 5.155.956 1.298 10.08a16.546 16.546 0 00-.471 11.59c.856 2.593 2.261 4.48 2.375 4.58l.002-.003-.002.004c.002 0 .003.002.005.003l.001.002.001.001c.182.153.336.109.4.109h.002a.45.45 0 00.092-.027l.012-.005h.001c.313-.134.368-.531.199-.73C-3.545 15.309 3.91.974 16.503.974c8.69 0 15.535 7.087 15.535 15.53 0 8.581-6.949 15.53-15.535 15.53-3.296 0-6.444-1.02-9.106-2.948a.488.488 0 00-.514-.034l-5.426 2.937c-.258.138-.491-.087-.49-.285.002-.116-.117.137 2.061-3.884a.484.484 0 00-.85-.46C-.013 31.405 0 31.27.002 31.702c.001.947 1.028 1.617 1.916 1.136l5.162-2.795a16.505 16.505 0 0018.65.137c10.097-6.817 9.585-21.842-.954-27.955z"/></g><defs><clipPath id="clip0_0_634"><path fill="#fff" d="M0 0h33v33H0z"/></clipPath></defs></svg>