<svg width="19" height="19" fill="none" xmlns="http://www.w3.org/2000/svg"><path d="M18.309 3.156L15.844.691c-.507-.635-2.061-1.17-3.232 0L1.34 11.925a.796.796 0 00-.24.605L.05 18.025c-.164.628.46 1.03.887.969l5.696-1.132c.163 0 .283-.081.403-.201L18.31 6.43a2.34 2.34 0 000-3.275zm-4.565-1.372c.244-.283.728-.283 1.011 0l.67.659L4.2 13.669l-1.166-1.178 10.71-10.707zM2.394 14.107l2.495 2.496-3.104.612.609-3.108zm14.826-8.85L6.494 15.982l-1.167-1.178L16.565 3.567l.651.64c.357.379.19.86.004 1.05z" fill="#fff"/></svg>