<svg width="835" height="351" fill="none" xmlns="http://www.w3.org/2000/svg"><path d="M831.222 59.819c4.888 17.478-1.584 37.52-18.088 58.963-16.484 21.416-42.793 43.974-76.987 66.33-68.373 44.701-167.974 88.4-282.593 120.453-114.62 32.053-222.441 46.358-304.083 43.607-40.831-1.375-75.025-7.014-100.227-16.773-25.233-9.77-41.162-23.548-46.05-41.027-4.888-17.479 1.584-37.522 18.088-58.964 16.484-21.416 42.794-43.974 76.987-66.329 68.373-44.702 167.974-88.401 282.594-120.454S603.304-.732 684.946 2.018c40.83 1.376 75.024 7.014 100.226 16.773 25.233 9.77 41.163 23.549 46.05 41.028z" stroke="url(#paint0_linear_0_425)" stroke-width="3"/><defs><linearGradient id="paint0_linear_0_425" x1="350.996" y1="3.833" x2="453.958" y2="307.01" gradientUnits="userSpaceOnUse"><stop stop-color="#BCFF5E" stop-opacity="0"/><stop offset="1" stop-color="#BCFF5E"/></linearGradient></defs></svg>