<svg width="532" height="224" fill="none" xmlns="http://www.w3.org/2000/svg"><path d="M528.927 38.297c3.044 10.885-.959 23.463-11.421 37.055-10.442 13.565-27.134 27.886-48.874 42.1-43.466 28.417-106.815 56.215-179.74 76.609-72.925 20.393-141.504 29.487-193.406 27.739-25.96-.875-47.66-4.46-63.623-10.641-15.994-6.193-25.942-14.871-28.986-25.755-3.044-10.885.96-23.464 11.422-37.056 10.441-13.565 27.133-27.886 48.874-42.1 43.466-28.417 106.814-56.215 179.74-76.608C315.838 9.247 384.417.152 436.318 1.9c25.96.875 47.66 4.46 63.623 10.641 15.995 6.194 25.943 14.871 28.986 25.756z" stroke="url(#paint0_linear_0_790)" stroke-width="3"/><defs><linearGradient id="paint0_linear_0_790" x1="242.509" y1="28.195" x2="289.296" y2="195.505" gradientUnits="userSpaceOnUse"><stop stop-color="#BCFF5E" stop-opacity="0"/><stop offset="1" stop-color="#BCFF5E"/></linearGradient></defs></svg>