<svg width="23" height="23" fill="none" xmlns="http://www.w3.org/2000/svg"><path d="M.116 20.558c.634-4.438 3.818-8.012 7.929-9.321A6.148 6.148 0 015.349 6.15 6.158 6.158 0 0111.5 0a6.158 6.158 0 016.151 6.151 6.15 6.15 0 01-2.695 5.086c4.11 1.31 7.294 4.883 7.928 9.32A2.14 2.14 0 0120.764 23H2.237a2.14 2.14 0 01-2.12-2.441zM16.046 6.15A4.552 4.552 0 0011.5 1.605 4.552 4.552 0 006.953 6.15a4.552 4.552 0 004.547 4.547 4.552 4.552 0 004.547-4.547zM1.83 21.21c.06.069.193.185.406.185h18.528a.532.532 0 00.406-.185.527.527 0 00.125-.425c-.69-4.836-4.902-8.483-9.795-8.483s-9.104 3.647-9.795 8.483a.53.53 0 00.125.425z" fill="#000"/></svg>